<svg height="200px" width="200px" version="1.1" id="Layer_1" xmlns="http://www.w3.org/2000/svg" xmlns:xlink="http://www.w3.org/1999/xlink" viewBox="0 0 512 512" xml:space="preserve" fill="#000000"><g id="SVGRepo_bgCarrier" stroke-width="0"></g><g id="SVGRepo_tracerCarrier" stroke-linecap="round" stroke-linejoin="round"></g><g id="SVGRepo_iconCarrier"> <circle style="fill:#e2958f;" cx="256" cy="256" r="245.801"></circle> <g> <path style="fill:#504e4e;" d="M256,512c-68.38,0-132.667-26.628-181.02-74.98S0,324.38,0,256S26.628,123.333,74.98,74.98 S187.62,0,256,0s132.667,26.628,181.02,74.98S512,187.62,512,256s-26.628,132.667-74.98,181.02S324.38,512,256,512z M256,20.398 C126.089,20.398,20.398,126.089,20.398,256S126.089,491.602,256,491.602S491.602,385.911,491.602,256S385.911,20.398,256,20.398z"></path> <path style="fill:#504e4e;" d="M288.186,168.882c-30.556,0-47.313,15.771-47.313,49.941v101.854 c0,34.499,16.756,50.27,48.627,50.27c39.099,0,42.713-24.642,44.685-40.413c0.658-5.257,3.943-8.543,10.843-8.543 c7.557,0,10.843,2.628,10.843,13.471c0,29.899-25.299,55.527-68.669,55.527c-37.127,0-68.012-19.057-68.012-70.312V218.824 c0-50.927,31.542-69.983,68.998-69.983c43.042,0,67.683,25.299,67.683,54.87c0,10.843-3.286,13.143-10.843,13.143 s-10.514-3.614-10.843-8.214C333.526,194.51,327.284,168.882,288.186,168.882z"></path> <path style="fill:#504e4e;" d="M156.037,167.861c-4.778,0-9.045-3.375-9.998-8.24c-1.083-5.528,2.52-10.887,8.048-11.97 c2.649-0.519,5.367-0.782,8.081-0.782c5.633,0,10.199,4.566,10.199,10.199s-4.566,10.199-10.199,10.199 c-1.4,0-2.8,0.135-4.158,0.402C157.346,167.798,156.686,167.861,156.037,167.861z"></path> <path style="fill:#504e4e;" d="M162.167,230.502c-23.057,0-41.817-18.759-41.817-41.817c0-5.106,0.913-10.098,2.712-14.839 c1.999-5.266,7.889-7.914,13.155-5.916c5.267,1.999,7.915,7.889,5.916,13.155c-0.919,2.419-1.384,4.976-1.384,7.598 c0,11.811,9.608,21.418,21.418,21.418c11.811,0,21.418-9.608,21.418-21.418c0-5.633,4.566-10.199,10.199-10.199 s10.199,4.566,10.199,10.199C203.984,211.743,185.225,230.502,162.167,230.502z"></path> </g> </g></svg>