<svg viewBox="0 0 1024 1024" class="icon" version="1.1" xmlns="http://www.w3.org/2000/svg" fill="#000000"><g id="SVGRepo_bgCarrier" stroke-width="0"></g><g id="SVGRepo_tracerCarrier" stroke-linecap="round" stroke-linejoin="round"></g><g id="SVGRepo_iconCarrier"><path d="M440.277481 390.185208V626.592988l-83.151447 60.801898L323.222878 776.847429l41.997715 137.757747 84.311922 59.814055 101.041317 10.869471 94.270275-53.394674s50.168999-82.211558 51.633181-88.224932c1.464182-6.013375-3.500609-108.544448-5.700078-114.164603s-25.11487-62.950217-25.11487-62.950217l-72.809466-51.150448 0.127876-218.987856" fill="#5FCEFF"></path><path d="M432.876651 310.262633h160.100902V377.234554h-160.100902z" fill="#FFB578"></path><path d="M440.277481 233.536961h143.860635V300.508882h-143.860635z" fill="#FF4893"></path><path d="M512.911117 1007.651038c-116.942712 0-212.082545-95.139833-212.082545-212.082545 0-77.224389 42.592339-148.588855 109.653773-185.669732V117.793088c0-56.49567 45.949087-102.460741 102.428772-102.460741s102.428772 45.961874 102.428772 102.460741v492.102476c67.058237 37.071287 109.653773 108.43895 109.653773 185.672929 0 116.942712-95.139833 212.082545-212.082545 212.082545z m0-947.562049c-31.799594 0-57.67213 25.885324-57.67213 57.704099v505.813993a22.384715 22.384715 0 0 1-12.921882 20.284349c-58.762274 27.391065-96.731891 86.926989-96.731891 151.677063 0 92.262621 75.063282 167.325903 167.325903 167.325903s167.325903-75.060086 167.325903-167.325903c0-64.762861-37.96642-124.301982-96.725497-151.677063a22.36873 22.36873 0 0 1-12.928276-20.284349V117.793088c0-31.818776-25.872536-57.704099-57.67213-57.704099z" fill="#4F46A3"></path><path d="M512.911117 933.77061c-74.193725 0-134.557647-60.37671-134.557647-134.589617 0-52.055172 30.517636-99.935188 77.748681-121.97144a22.378321 22.378321 0 1 1 18.925666 40.562306c-31.540645 14.715345-51.917705 46.671587-51.917705 81.412331 0 49.532815 40.284175 89.832974 89.801005 89.832975s89.801005-40.296962 89.801006-89.832975a22.378321 22.378321 0 1 1 44.756642 0c0 74.209709-60.363922 134.586419-134.557648 134.58642zM512.911117 179.173626H432.860666a22.378321 22.378321 0 1 1 0-44.756642h80.050451a22.378321 22.378321 0 1 1 0 44.756642zM592.833692 255.899298H432.860666a22.378321 22.378321 0 1 1 0-44.756642h159.973026a22.378321 22.378321 0 1 1 0 44.756642zM592.833692 332.62497H432.860666a22.378321 22.378321 0 1 1 0-44.756642h159.973026a22.378321 22.378321 0 1 1 0 44.756642zM592.833692 409.350642H432.860666a22.378321 22.378321 0 1 1 0-44.756642h159.973026a22.378321 22.378321 0 1 1 0 44.756642z" fill="#4F46A3"></path></g></svg>