<svg viewBox="0 0 72 72" id="emoji" xmlns="http://www.w3.org/2000/svg" fill="#000000"><g id="SVGRepo_bgCarrier" stroke-width="0"></g><g id="SVGRepo_tracerCarrier" stroke-linecap="round" stroke-linejoin="round"></g><g id="SVGRepo_iconCarrier"> <g id="color"> <polygon fill="#4d4c4c" stroke="none" points="8,56 63,56 63,51 67,46.9042 67,28.0005 63,24 63,16 8,16"></polygon> <polyline fill="#4d4c4c" stroke="none" points="63,56 63,51 67,46.9042 67,28.0005 63,24 63,16 56.1671,16"></polyline> <polygon fill="#696969" stroke="none" points="31.333,56 8,56 8,16 56.1671,16"></polygon> <rect x="6" y="22" width="2" height="9" fill="#696969" stroke="none"></rect> <rect x="29" y="46" width="28" height="4" fill="#696969" stroke="none" stroke-linecap="round" stroke-linejoin="round" stroke-miterlimit="10" stroke-width="2"></rect> <rect x="24" y="22" width="33" height="4" fill="#696969" stroke="none" stroke-linecap="round" stroke-linejoin="round" stroke-miterlimit="10" stroke-width="2"></rect> </g> <g id="hair"></g> <g id="skin"></g> <g id="skin-shadow"></g> <g id="line"> <polyline fill="none" stroke="#000000" stroke-linecap="round" stroke-linejoin="round" stroke-miterlimit="10" stroke-width="2" points="8,22 8,16 63,16 63,24 67,28.0005 67,46.9042 63,51 63,56 8,56 8,31"></polyline> <rect x="29" y="46" width="28" height="4" fill="none" stroke="#000000" stroke-linecap="round" stroke-linejoin="round" stroke-miterlimit="10" stroke-width="2"></rect> <rect x="24" y="22" width="33" height="4" fill="none" stroke="#000000" stroke-linecap="round" stroke-linejoin="round" stroke-miterlimit="10" stroke-width="2"></rect> <polyline fill="none" stroke="#000000" stroke-linecap="round" stroke-linejoin="round" stroke-miterlimit="10" stroke-width="2" points="18,30 18,22 5,22 5,31 11.1252,31"></polyline> <polyline fill="none" stroke="#000000" stroke-linecap="round" stroke-linejoin="round" stroke-miterlimit="10" stroke-width="2" points="14,50 18,50 18,46 14,46"></polyline> <path fill="none" stroke="#000000" stroke-linecap="round" stroke-linejoin="round" stroke-miterlimit="10" stroke-width="2" d="M8,22"></path> </g> </g></svg>